/* XPM */
static char * 0_xpm[] = {
"32 32 35 1",
" 	c None",
".	c #FF5A20",
"+	c #FF5D1F",
"@	c #FF641E",
"#	c #FF621F",
"$	c #FF6A1E",
"%	c #FF8318",
"&	c #FF7D19",
"*	c #FF5C20",
"=	c #FF5F1F",
"-	c #FF6D1D",
";	c #FF6F1D",
">	c #FF7B1A",
",	c #FF8218",
"'	c #FF6B1D",
")	c #FF7D1A",
"!	c #FF5E21",
"~	c #FF7F19",
"{	c #FF8019",
"]	c #FF8119",
"^	c #FF5F21",
"/	c #FF5B20",
"(	c #FF7A1B",
"_	c #FF6120",
":	c #FF5D21",
"<	c #FF6320",
"[	c #FF771C",
"}	c #FF751C",
"|	c #FF5C21",
"1	c #FF681F",
"2	c #FF6E1D",
"3	c #FF701C",
"4	c #FF791B",
"5	c #FF771B",
"6	c #FF6420",
"                  .             ",
"                  .             ",
"                  .             ",
"                  .             ",
"                  .             ",
"            .     ...           ",
"            .     ...           ",
"            .   .....           ",
"            .   .....           ",
"   .      ...   .....           ",
"   .      ...   .....           ",
"   .      ...   .......    .    ",
"          ...   .......         ",
"       ................         ",
"       ..........+@#...         ",
"       ..........$%&...    .    ",
"       ........*=-%&...    .    ",
"   .   ........;%%%&...    .    ",
"   .   ........;%%%&...    .    ",
"   .   ....>,'.;%%%)!!..   .    ",
"   ........>%'.;%%%)!!........  ",
"   ......>~,%{~]%%%,~)!!......  ",
"   ......~%%%%%%%%%%%]^!/.....  ",
"   ......~%%%%%%%   %,((_:/...  ",
"   ......~%%%%%%%   %%%%<!/...  ",
"     ..//~%%%%%     %%%%[}<|/.  ",
"     ..//~%%%%%     %%%%%%1!*.  ",
"       //23~%         %%%%1!:|  ",
"       ....>%         %%%%1!!!  ",
"       ....>%         %%456!    ",
"       ....>%%%       %%<!!!    ",
"                                "};
