/* XPM */
static char * 1_xpm[] = {
"32 32 39 1",
" 	c None",
".	c #FF5A23",
"+	c #FF5720",
"@	c #FF5B23",
"#	c #FF6621",
"$	c #FF5E22",
"%	c #FF8318",
"&	c #FF8218",
"*	c #FF5C23",
"=	c #FF6022",
"-	c #FF5F22",
";	c #FF6920",
">	c #FF7B1A",
",	c #FF5B20",
"'	c #FF5B21",
")	c #FF5F1F",
"!	c #FF5C20",
"~	c #FF601F",
"{	c #FF631F",
"]	c #FF7F19",
"^	c #FF8219",
"/	c #FF6221",
"(	c #FF8119",
"_	c #FF6321",
":	c #FF5A20",
"<	c #FF691E",
"[	c #FF8118",
"}	c #FF641F",
"|	c #FF681E",
"1	c #FF7E19",
"2	c #FF8019",
"3	c #FF6A1E",
"4	c #FF841F",
"5	c #FF661F",
"6	c #FF8420",
"7	c #FF5F20",
"8	c #FF5E1F",
"9	c #FF661E",
"0	c #FF701C",
"                                ",
"           .                    ",
"           .                    ",
"           .       .      .     ",
"           .       .            ",
"     +     .     ...            ",
"           .     ...            ",
"           ...   ......   .     ",
"           ...   ......   .     ",
"         ..............   .     ",
"         .......@##....   .     ",
"     .   .......$%&....   ...   ",
"     .   .......$%&....   ...   ",
"     ...........$%&....   ...   ",
"     .....*=-...$%&....   ...   ",
"     .....;%>,'.$%&..........   ",
"     .....;%>,'.$%&..........   ",
"   .......;%>,,,)%&..,,......   ",
"   .......;%>,,!~%&..!!@@....   ",
"   .......;%>,{&&%&,,]&^^/...   ",
"     .....;%>,{%%%&,!(%%%_...   ",
"     :::::<%%[[%%%%[[%%%%},,,   ",
"     :::::<%%%%%%%%%%%%%%},,,   ",
"     :::|12%%%     %%%%%%},     ",
"     :::3%%%%%     %%%%%%},     ",
"       :3%%%%%        45{!,     ",
"       :3%%%%%        67,,,     ",
"       :890%          67,,,     ",
"       :::<%          67,,,     ",
"         :<%          67,       ",
"         :<%%%     66667,       ",
"                                "};
