/* XPM */
static char * 2_xpm[] = {
"32 32 51 1",
" 	c None",
".	c #FF5B20",
"+	c #FF5B24",
"@	c #FF661E",
"#	c #FF5C20",
"$	c #FF5D20",
"%	c #FF8218",
"&	c #FF8318",
"*	c #FF5F1F",
"=	c #FF8019",
"-	c #FF8119",
";	c #FF5E20",
">	c #FF761B",
",	c #FF6F1D",
"'	c #FF7A1A",
")	c #FF8118",
"!	c #FF691E",
"~	c #FF7B1A",
"{	c #FF6A1E",
"]	c #FF7E19",
"^	c #FF621F",
"/	c #FF631F",
"(	c #FF7C1A",
"_	c #FF7D1A",
":	c #FF7D19",
"<	c #FF5A20",
"[	c #FF840E",
"}	c #FF840D",
"|	c #FF8316",
"1	c #FF681E",
"2	c #FF840A",
"3	c #FF8408",
"4	c #FF8315",
"5	c #FF6B1D",
"6	c #FF601F",
"7	c #FF771B",
"8	c #FF781B",
"9	c #FF840F",
"0	c #FF8317",
"a	c #FF8314",
"b	c #FF7519",
"c	c #FF6C1D",
"d	c #FF6C1A",
"e	c #FF5E1F",
"f	c #FF701C",
"g	c #FF721B",
"h	c #FF5D1F",
"i	c #FF5A21",
"j	c #FF830F",
"k	c #FF5B22",
"l	c #FF5E21",
"                                ",
"                  .             ",
"                  .             ",
"              .   ...           ",
"              .   ...           ",
"       +    ...   ...     .     ",
"            ...   ...     .     ",
"            ...........   .     ",
"            .@@#.......         ",
"            $%&*.......         ",
"            $%&*.......         ",
"     .      $%&*...........     ",
"     .      $=-;.......$;$.     ",
"     ..................>&,...   ",
"     ..............##..>%,...   ",
"     ..............')!.#$#...   ",
"     ..............~&{.......   ",
"     ..........]=^.~&{.......   ",
"   ............-&/.~&{.......   ",
"   .........#(_&&]:%&{.......   ",
"   .........$%&&&&&&&!.......   ",
"   <......$~~&&[}}}|&]~1.....   ",
"   <<.....;&&&&23334&&&5.....   ",
"     ...678&&9[     [4&~7!...   ",
"     ...^&&&033     3a&&&,...   ",
"     ...^&09933       9bc/.     ",
"     ...^&03333       3d...     ",
"       <efg3          3d...     ",
"       <<<h3          3d...     ",
"       iii$j          3d.       ",
"     ..kkklaa33     333d.       ",
"                                "};
