/* XPM */
static char * 3_xpm[] = {
"32 32 36 1",
" 	c None",
".	c #FF5B20",
"+	c #FF741C",
"@	c #FF7F19",
"#	c #FF6B1D",
"$	c #FF771B",
"%	c #FF8318",
"&	c #FF6D1D",
"*	c #FF701C",
"=	c #FF7A1A",
"-	c #FF8019",
";	c #FF711C",
">	c #FF7C1A",
",	c #FF751B",
"'	c #FF791A",
")	c #FF6F1D",
"!	c #FF731C",
"~	c #FF8419",
"{	c #FF7D19",
"]	c #FF791B",
"^	c #FF641F",
"/	c #FF771C",
"(	c #FF7E1A",
"_	c #FF781B",
":	c #FF6A1D",
"<	c #FF6D1E",
"[	c #FF691E",
"}	c #FF791C",
"|	c #FF7A1B",
"1	c #FF671E",
"2	c #FF711D",
"3	c #FF5B21",
"4	c #FF8417",
"5	c #FF5B22",
"6	c #FF771A",
"7	c #FF8314",
"                                ",
"              .                 ",
"              .                 ",
"            ...       .         ",
"            ...       .         ",
"            ...       .         ",
"            ...     ...         ",
"            ...     ...         ",
"            ...........         ",
"            ...........         ",
"          .............   .     ",
"          ...+@#.......   .     ",
"          ...$%&...........     ",
"          ...$%&...........     ",
"        .....$%&.............   ",
"        ...*=-%&...;>&.......   ",
"      .....$%%%&...,%;.......   ",
"      .....$%%%@>#.,%;.&'&...   ",
"      .....$%%%%%).,%;.!%!...   ",
"      .....$~%%%%{]@%;.^#^...   ",
"      ...../~%%%%%%%%;.......   ",
"      ...../~~~~~~~~~(_:.....   ",
"    ......./~~~~~~~~~~%;.....   ",
"    .....<+(~~~     ~~~>![.     ",
"    .....}~~~~~     ~~~~%!.     ",
"      ...}~~~~~       ~|)1.     ",
"      ...}~~~~~       ~2...     ",
"      ...<!(~         ~2...     ",
"      ...../~       ~~~2...     ",
"        333$4         ~2.       ",
"        55567         ~2.       ",
"                                "};
