/* XPM */
static char *_[] = {
/* columns rows colors chars-per-pixel */
"32 32 8 1 ",
"  c None",
". c #3A0911",
"X c black",
"o c #3A0911",
"O c #811426",
"+ c #A11B31",
"@ c black",
"# c white",
/* pixels */
"                                ",
"                                ",
"                                ",
"                                ",
"                                ",
"       ....ooooooo.....         ",
"       ...oO++++++o....         ",
"       ..oO+++oooo+o...         ",
"       .oO+++o@@@@o+o..         ",
"       .oO++o@@@@@@o+o.         ",
"       oOO++o@@@@@@o+o.         ",
"      oOOOO+o@#@@@#o+o.         ",
"      oOOoO+o@#@@@#o+o.         ",
"      .oooO+o@@@@@@oOo.         ",
"      . .oOO+o@@@@@oOo.         ",
"       ...oOOOo@@@oOo..         ",
"       ....ooOOoooOo...         ",
"       ...oOOO+++++Oo..         ",
"       ..oO+++++++++Oo.         ",
"       ..oO+++++++++Oo.         ",
"       ..o+++++++++++o.         ",
"       .oO+++++++++++o.         ",
"       .oO++++++O++++Oo         ",
"       oOO++++++OO+++Oo         ",
"       oOO+++++OoO++OOOo        ",
"       oOOO+O+OOoOO+OOOo        ",
"       oOoOO+OOo@oOOOOOo        ",
"       .ooOOOOo@@oOOoOo.        ",
"       .. ooOOo@@@oOOo..        ",
"       ..  .oooXX@ooo...        ",
"          ..@ XXXX @ ..         ",
"           @XXXXXX @X           "
};
