/* XPM */
static char *_[] = {
/* columns rows colors chars-per-pixel */
"32 32 9 1 ",
"  c None",
". c #3A0911",
"X c #811426",
"o c black",
"O c #3A0911",
"+ c #811426",
"@ c #A11B31",
"# c black",
"$ c white",
/* pixels */
"                                ",
"                                ",
"                                ",
"                                ",
"                                ",
"       ....OOOOOOO.....         ",
"       ...O+@@@@@@O....         ",
"       ..O+@@@OOOO@O...         ",
"       .O+@@@O####O@O..         ",
"       .O+@@O######O@O.         ",
"       O++@@O######O@O.         ",
"       O+++@O#$###$O@O.         ",
"       O+O+@O#$###$O@O.         ",
"        OO+@O######O+O.         ",
"       ..O++@O#####O+O.         ",
"       ...O+++O###O+O..         ",
"       ....OO++OOO+O...         ",
"       ...O+++@@@@@+O..         ",
"       ..O+@@@@@@@@@+O.         ",
"       ..O+@@@@@@@@@+O.         ",
"       ..O@@@@@@@@@@@O.         ",
"       .O+@@@@@@@@@@@+O.        ",
"       .O+@@@@@@+@@@@+O.        ",
"       O+++@@@@@+@@+@++O        ",
"       O++@@@@@+O+@@+@+O        ",
"       O+++@+@++O++@+++O        ",
"       O+O++@@+O#O++++O.        ",
"       .OOO+++O##O++O+X.        ",
"       ...OO++O###O++XX         ",
"       .....OO  o#OOXXX         ",
"           o #oooo#XXX.         ",
"             #ooo#oo            "
};
