/* XPM */
static char * 2_xpm[] = {
"32 32 10 1",
" 	c None",
".	c #FFFFFF",
"+	c #3A0911",
"@	c #811426",
"#	c #000000",
"$	c #3A0911",
"%	c #811426",
"&	c #A11B31",
"*	c #000000",
"=	c #FFFFFF",
"                                ",
"                                ",
"                                ",
"                                ",
"                                ",
"           $$$$$$$              ",
"          $%&&&&&&$             ",
"         $%&&&$$$$&$            ",
"        $%&&&$****$&$           ",
"        $%&&$******$&$          ",
"       $%%&&$******$&$          ",
"       $%%%&$*=***=$&$          ",
"       $%$%&$*=***=$&$          ",
"        $$%&$******$%$          ",
"         $%%&$*****$%$          ",
"          $%%%$***$%$           ",
"           $$%%$$$%$            ",
"          $%%%&&&&&%$           ",
"         $%&&&&&&&&&%$          ",
"         $%&&&&&&&&&%$          ",
"         $&&&&&&&&&&&$          ",
"        $%&&&&&&&&&&&%$         ",
"        $%&&&&&&%&&&&%$         ",
"       $%%%&&&&&%&&%&%%$        ",
"       $%%&&&&&%$%&&%&%$        ",
"       $%%%&%&%%$%%&%%%$        ",
"       $%$%%&&%$*$%%%%$         ",
"        $$$%%%$**$%%$%          ",
"          $$%%$***$%%           ",
"            $$   *$$            ",
"             *    *             ",
"             *   *              "};
