/* XPM */
static char *xpm___0[] = {
/* columns rows colors chars-per-pixel */
"32 32 39 1 ",
"  c black",
". c #3A0911",
"X c #72751B",
"o c #73761C",
"O c #74771D",
"+ c #78771F",
"@ c #76791F",
"# c #79791F",
"$ c #717420",
"% c #767923",
"& c #7C7922",
"* c #7F7D23",
"= c #777933",
"- c #767935",
"; c #777A3A",
": c #777C45",
"> c #7A7C43",
", c #7A7E47",
"< c #7D7F46",
"1 c #7C7E4A",
"2 c #811426",
"3 c #A11B31",
"4 c #857D25",
"5 c #807F47",
"6 c #7E8045",
"7 c #7D8053",
"8 c #7D8054",
"9 c #8F8329",
"0 c #9C8633",
"q c #9C8930",
"w c #858256",
"e c #86855C",
"r c #88855E",
"t c #858769",
"y c #8B8968",
"u c #8F8D6E",
"i c #928E6E",
"p c #928E71",
"a c white",
/* pixels */
"XXXXXXXXXXXXXXXXXXXXXXXXXXXXXXXX",
"XXXXXXXXXXoXXXXXXXXXXXoXXXXXXXXX",
"XXXXXXXXo@oO.......XXXXXXXXXXXXX",
"XXX55XXXooo.2333333.XXXXXXXoXXXX",
"XXX--XXXXX.2333....3.$XXXO@XXXXX",
"XXXXXXXXX.2333.    .3.rXXXXXX,%X",
"XXXXXXXXX.233.      .3.XXXXXX8eX",
"XXXXXXXX.2233.      .3.XXXXXXXXX",
"XXXXXXXX.2223. a   a.3.XXXXXXXXX",
"XXXXXXXX.2.23. a   a.3.oXXXXXXXX",
"XXXXXXXX.2.23.      .2.oXXXXXXXX",
"XOO,1XXXX..223.     .2.&oOOXXXXX",
"Xo;pyXXXXXX.222.   .2.XXXoXXXXXX",
"Xo8u>XXXXXXX..22...2.XXXXXXXXX@X",
"XXXXXXXXX@o.222333332.XXXXXXXXXX",
"XXXXXXXXXX.23333333332.XXXXXXXXX",
"XXXXXXXXXX.23333333332.XXXXXXXXX",
"XXXXXXXXXX.33333333333.XXXXXX@@X",
"XXXXX@OXX.233333333333.XXXXXXqoX",
"XXXXXXXXX.2333333233332.XXXXXXXX",
"XXoXXXXXX.2333333233332.XXXXXXXX",
"X+09XXXXX.2333332.23322.XXXXXXXX",
"XXXXXXXX.22232322.22322.XXXXXXXX",
"XXXXXXXX.2222322. .2222.XXXXXXXX",
"XoXXXXXX.2.2222.  .22.2.XXXXXXXX",
"XOoXXXXXX..2.22.   .22.XXXXXXXXX",
"XXXXXXXXX#..o...XX ...XXXXXXXoXX",
"XXXXXX6XXXXXo  XXoo XXXXXXXXo,@X",
"X@OXX$eXXXXOo4 XX%6 XXXXXXX@<t:X",
"Oio%OXXXoOoXX& XX=w XXXXXXXorooX",
"X$-t7XXXX*&XXX@OXXXXXXXXXXXXXXXX",
"XXXXoXXXXXXXXXoXXXXXXXXXXXXXXXXX"
};
