/* XPM */
static char *xpm___1[] = {
/* columns rows colors chars-per-pixel */
"32 32 40 1 ",
"  c black",
". c #3A0911",
"X c #72751B",
"o c #73761C",
"O c #74771D",
"+ c #78771F",
"@ c #76791F",
"# c #717420",
"$ c #767923",
"% c #7C7922",
"& c #7F7D23",
"* c #777933",
"= c #767935",
"- c #777A3A",
"; c #777C45",
": c #7A7C43",
"> c #7A7E47",
", c #7D7F46",
"< c #7C7E4A",
"1 c #811426",
"2 c #A11B31",
"3 c #857D25",
"4 c #807F47",
"5 c #7E8045",
"6 c #7D8053",
"7 c #7D8054",
"8 c #8F8329",
"9 c #968230",
"0 c #9C8633",
"q c #9C8930",
"w c #858256",
"e c #86855C",
"r c #88855E",
"t c #858769",
"y c #8B8968",
"u c #8F8D6E",
"i c #928E6E",
"p c #928E71",
"a c #969176",
"s c white",
/* pixels */
"XXXXXXXXXXXXXXXXXXXXXXXXXXXXXXXX",
"XXXXXXXXXXoXXXXXXXXXXXoXXXXXXXXX",
"XXXXXXXXo@oOXXXXo@$XXXXXXXXXXXXX",
"XXX44XXXoooX.......XXXXXXXXoXXXX",
"XXX==XXXXXX.1222222.X#XXXO@XXXXX",
"XXXXXXXXXX.1222....2.arXXXXXX>$X",
"XXXXXXXXX.1222.    .2.oXXXXXX7eX",
"XXXXXXXXX.122.      .2.XXXXXXXXX",
"XXXXXXXX.1122.      .2.XXXXXXXXX",
"XXXXXXXX.1112. s   s.2.oXXXXXXXX",
"XXXXXXXX.1.12. s   s.2.oXXXXXXXX",
"XOO><XXX.1.12.      .1.%oOOXXXXX",
"Xo-pyXXXX..112.     .1.XXoXXXXXX",
"Xo7u:XXXXXX.111.   .1.XXXXXXXX@X",
"XXXXXXXXX@oO..11...1.XXXXXXXXXXX",
"XXXXXXXXXXo.111222221.XXXXXXXXXX",
"XXXXXXXXXX.12222222221.XXXXXXXXX",
"XXXXXXXXXX.12222222221.XXXXXX@@X",
"XXXXX@OXXX.22222222222.XXXXXXqoX",
"XXXXXXXXX.122222222222.XXXXXXXXX",
"XXoXXXXXX.1222222122221.XXXXXXXX",
"X+08XXXXX.1222222122221.XXXXXXXX",
"XXXXXXXXX.1222221.12211.XXXXXXXX",
"XXXXXXXX.11121211.11211.XXXXXXXX",
"XoXXXXXX.1111211. .1111.XXXXXXXX",
"XOoXXXXX.1.1111.  .11.1.XXXXXXXX",
"XXXXXXXXX..1.11.   .11.XXXXXXoXX",
"XXXXXX5XXX..o...Xo ...XXXXXXo>@X",
"X@OXX#eXXXXOo39 X$56 XXXXXX@,t;X",
"Oio$OXXXoOoXX% XX*w XXXXXXXorooX",
"X#=t6XXXX&%XXX@OXXXXXXXXXXXXXXXX",
"XXXXoXXXXXXXXXoXXXXXXXXXXXXXXXXX"
};
