/* XPM */
static char *_[] = {
/* columns rows colors chars-per-pixel */
"32 32 10 1 ",
"  c white",
". c #3A0911",
"X c #811426",
"o c black",
"O c None",
"+ c #811426",
"@ c #A11B31",
"# c black",
"$ c white",
"% c white",
/* pixels */
"                                ",
"                                ",
"                                ",
"                                ",
"                                ",
"                                ",
"       ....OOOOOOO.....         ",
"       ...O+@@@@@@O....         ",
"       ..O+@@@OOOO@O...         ",
"       .O+@@@O####O@O..         ",
"       .O+@@O######O@O.         ",
"       O++@@O######O@O.         ",
"      O++++@O######O@O.         ",
"      O++O+@O#$###$O@O.         ",
"       OOO+@O######O+O.         ",
"         O++@O#####O+O.         ",
"      ....O+++O###O+O..         ",
"       ....OO++OOO+O...         ",
"       ...O+++@@@@@+O..         ",
"       . O+@@@@@@@@@+O.         ",
"       . O+@@@@@@@@@+O.         ",
"       . + @@@@@@@@@@O.         ",
"       .O+@@@@@@@@@@@O.         ",
"       O++@@@@@@+@@@ +          ",
"      O+ +@ @@@@+@@@@+O         ",
"      O  +@@@@@+O @@++ O        ",
"       ++++@+@ + ++@ ++O        ",
"      O + + @++O#O +++ O        ",
"      .O+O++ +O #O++ O          ",
"      .XO O OOO#  OOO O.        ",
"       .   .  #oo .#o...        ",
"           .. oooo#oo...        "
};
