/* XPM */
static char *_[] = {
/* columns rows colors chars-per-pixel */
"32 32 8 1 ",
"  c white",
". c #3A0911",
"X c black",
"o c None",
"O c #811426",
"+ c #A11B31",
"@ c black",
"# c white",
/* pixels */
"                                ",
"                                ",
"                                ",
"                                ",
"                                ",
"                                ",
"                                ",
"                                ",
"       ....oo oooo.....         ",
"       ... O  ++++o....         ",
"       ..oO  +oooo+o...         ",
"       .oO ++o@@@@o+o..         ",
"        oO + @@@@@@o  .         ",
"         O + @@@@@@o+o.         ",
"      oO O  o@@@@@@o+o.         ",
"          O  @@@@@@o  .         ",
"       o oO   @@@@@o o.         ",
"         oO + @@@@@oOo          ",
"      ....oO Oo@@@oO ..         ",
"       ... ooOOoo O   .         ",
"       . o +++ ++ ++  .         ",
"       .  O+ ++ +  +  .         ",
"       .o       ++  + .         ",
"        O + +  +O  + O          ",
"      oO       +  +++Oo         ",
"      o   +  +  o ++O  o        ",
"       OO          + O o        ",
"      o     +  o@  O            ",
"                                ",
"          o    @                ",
"           .  @X     .          ",
"                                "
};
