/* XPM */
static char * 6_xpm[] = {
"32 32 2 1",
" 	c None",
".	c #F6EE2D",
"                                ",
"                                ",
"                                ",
"              .........         ",
"           ..............       ",
"         .................      ",
"        ....................    ",
"       .....................    ",
"      .....................     ",
"      ........        ....      ",
"     ........                   ",
"     ......                     ",
"     ......                     ",
"    .......     ..              ",
"    .......  .........          ",
"    ....................        ",
"    .....................       ",
"    ......................      ",
"    .......................     ",
"    ..........      ........    ",
"     ........        .......    ",
"     ........        .......    ",
"     ........        .......    ",
"      .......        .......    ",
"      ........      ........    ",
"       ....................     ",
"        ..................      ",
"         ................       ",
"          ..............        ",
"            ..........          ",
"                                ",
"                                "};
