/* XPM */
static char * 8_xpm[] = {
"32 32 2 1",
" 	c None",
".	c #F6EE2D",
"                                ",
"                                ",
"            .........           ",
"          .............         ",
"        ................        ",
"       ...................      ",
"      ....................      ",
"      .......      ........     ",
"     ........      ........     ",
"     ........      ........     ",
"     ........      ........     ",
"     ........      ........     ",
"      .......      ........     ",
"      ....................      ",
"       ..................       ",
"        ................        ",
"        ................        ",
"       ..................       ",
"      ....................      ",
"      .......      ........     ",
"     ........      ........     ",
"     .......       ........     ",
"     ........      ........     ",
"      .......      ........     ",
"      ....................      ",
"       ...................      ",
"        .................       ",
"         ..............         ",
"           ..........           ",
"                                ",
"                                ",
"                                "};
