/* XPM */
static char *collectible[] = {
/* columns rows colors chars-per-pixel */
"32 32 49 1 ",
"  c #17111A",
". c #72751B",
"X c #73761C",
"o c #74771D",
"O c #78771F",
"+ c #76791F",
"@ c #79791F",
"# c #76403F",
"$ c #6F7421",
"% c #717420",
"& c #767923",
"* c #7E7A22",
"= c #7F7D23",
"- c #7F7B24",
"; c #777933",
": c #767935",
"> c #797937",
", c #747938",
"< c #777C45",
"1 c #7A7E47",
"2 c #7D7F46",
"3 c #7C7E4A",
"4 c #857D25",
"5 c #9E5647",
"6 c #9F5B43",
"7 c #807F47",
"8 c #7E8045",
"9 c #7D8053",
"0 c #7D8054",
"q c #8F8329",
"w c #968230",
"e c #9C8633",
"r c #9A8830",
"t c #9C8832",
"y c #CB8C37",
"u c #FFBF36",
"i c #818251",
"p c #858256",
"a c #86855C",
"s c #88855E",
"d c #8D8A66",
"f c #858769",
"g c #878869",
"h c #8B8968",
"j c #8F8D6E",
"k c #928E6E",
"l c #928E71",
"z c #969176",
"x c #FFDE5C",
/* pixels */
"................................",
"..........X...........X.........",
"........X+Xo....X+&.............",
"...77...XXX......:d........X....",
"...::.........+......%...o+.....",
"............og,.....izs......1&.",
".............$     .>%X......0a.",
"...........   xxxxu   ..........",
".........  xxx55555uuu  ........",
"........ xx555uuuuu555uu .......",
"....... x55uuuuuuuuuuu55u ......",
".oo13. x5uuuuuuu5uuuuuuu5u .....",
".X,lh x5uu5uuuu5x5uuuu5uu5u ....",
".X0j x5uuu55uu5xxx5uu55uuu5u .+.",
".... x5uuu5x55xxxxx55x5uuu5u ...",
".... x5uuu5xxxxxxxxxxx5uuu5y ...",
".... u5uuuu5xxxxxxxxx5uuuu5y ...",
".... u5uuuu5xxxxxxxxx5uuuu5y ++.",
".... #u5uuuu555555555uuuu5y# tX.",
".... 6#u5uuuuuuuuuuuuuuu5y#6 ...",
"..X.. y#u55uuuuuuuuuuu55y#6 ....",
".Oeq. 6y#uu55uuuuuuu55yy#6y ....",
"...... y6##uu5555555yy##y6 .....",
"....... 6y6##uuuuuyy##y6y ......",
".X......  6y6#######y6y  .......",
".oX......+   6y6y6y6   .........",
".........@t*X       .........X..",
"......8.....Xr-..XXX........X1+.",
".+o..%a....oX4w..&89.......+2f<.",
"okX&o...XoX..*...;pX.......XsXX.",
".%:f9....=*...+o................",
"....X.........X................."
};
