/* XPM */
static char *exit[] = {
/* columns rows colors chars-per-pixel */
"32 32 7 1 ",
"  c None",
". c #17111A",
"X c #17111A",
"o c #D3A15E",
"O c #734538",
"+ c #A66F4C",
"@ c white",
/* pixels */
"                                ",
"                                ",
"                                ",
"                                ",
"                                ",
"                                ",
"                     X.         ",
"          X         XoX         ",
"         XoX        XoX         ",
"         XoX      XXooX         ",
"         XoOXXXXXXooooX         ",
"         XoO+++ooooooo+X        ",
"         XooO+oooooooo+X        ",
"         Xoo+oooooooooo+X       ",
"        Xoooo+ooooooooo+X       ",
"        Xoooo+oooooooooo+X      ",
"       Xoooooo+ooooooooo++X     ",
"       Xoo+ooo+oooooooooo++X    ",
"      XoooOoooo+ooooooooo++X    ",
"      XoooO+ooo+oooooooooo++X   ",
"     XooooO+ooooOoooooooo+++X   ",
"     XooooX+oooo+O+ooooo++++X   ",
"    XooooX X+oooo+O++oo+++XX    ",
"    XooooX X+oooo++O+++++X      ",
"   Xoooo+X X+ooo++++O++XX       ",
"   X++++X   X+++++++OXX         ",
"   XXXXXX   XXXXXXXXX           ",
"                                ",
"                                ",
"                                ",
"                                ",
"                                "
};
