/* XPM */
static char *floor[] = {
/* columns rows colors chars-per-pixel */
"32 32 107 2 ",
"   c #70741B",
".  c #71741B",
"X  c #71751B",
"o  c #72741B",
"O  c #72751B",
"+  c #73751B",
"@  c #70751C",
"#  c #71751C",
"$  c #71751D",
"%  c #72751C",
"&  c #73751C",
"*  c #72761C",
"=  c #73761C",
"-  c #72761D",
";  c #73771D",
":  c #71741E",
">  c #71751E",
",  c #72751E",
"<  c #73761F",
"1  c #73771F",
"2  c #74761C",
"3  c #74771D",
"4  c #75771D",
"5  c #74771E",
"6  c #74771F",
"7  c #78771F",
"8  c #74781E",
"9  c #75781E",
"0  c #76791E",
"q  c #76791F",
"w  c #767A1F",
"e  c #79791F",
"r  c #7A791F",
"t  c #6F7421",
"y  c #717420",
"u  c #727520",
"i  c #737620",
"p  c #727523",
"a  c #747723",
"s  c #767922",
"d  c #767923",
"f  c #7E7B21",
"g  c #7C7922",
"h  c #7E7A22",
"j  c #7F7B22",
"k  c #7F7D23",
"l  c #7F7B24",
"z  c #777933",
"x  c #767935",
"c  c #747936",
"v  c #757937",
"b  c #767936",
"n  c #777B37",
"m  c #797937",
"M  c #787A37",
"N  c #747938",
"B  c #757A38",
"V  c #777A3A",
"C  c #797A3B",
"Z  c #777C45",
"A  c #7A7C43",
"S  c #7B7D43",
"D  c #7A7C44",
"F  c #7A7E45",
"G  c #7B7F46",
"H  c #7A7E47",
"J  c #7A7F47",
"K  c #7D7F46",
"L  c #7C7E4A",
"P  c #817A24",
"I  c #837C27",
"U  c #857D25",
"Y  c #847D28",
"T  c #807F47",
"R  c #7E8045",
"E  c #7D8053",
"W  c #7F8253",
"Q  c #7D8054",
"!  c #7D8055",
"~  c #7F8057",
"^  c #8F8329",
"/  c #968230",
"(  c #9A8730",
")  c #9C8633",
"_  c #9A8830",
"`  c #9C8930",
"'  c #9C8832",
"]  c #818251",
"[  c #838252",
"{  c #858256",
"}  c #86855C",
"|  c #86865E",
" . c #88875D",
".. c #88855E",
"X. c #8D8A66",
"o. c #8F8B67",
"O. c #858769",
"+. c #86876B",
"@. c #878869",
"#. c #8B8968",
"$. c #8C8A69",
"%. c #8F8D6E",
"&. c #928E6E",
"*. c #928E6F",
"=. c #928E71",
"-. c #969176",
";. c #90907A",
/* pixels */
"O O O O O O O O O O O O O O O O O O O O O O O O O O O O O O O O ",
"O O O O O O O O O O = O O O O O O O O O O O = O O O O O O O O O ",
"O O O O O O O O = q = 3 O O O O = q s O O O O O O O O O O O O O ",
"O O O T T O O O = = = O O O O O O x o.O O O O O O O O = O O O O ",
"O O O x x O O O O O O O O O q O O O O O O p O O O 3 q O O O O O ",
"O O O O O O O O O O O O 3 @.N O O O O O [ -...O O O O O O F s O ",
"O O O O O O O O O O O O O t O O O O O O M p = O O O O O O Q } O ",
"O O O O O O O O O O O O O O O O O O O O O O O O O O O O O O O O ",
"O O O O O O O O O O O O O O O O O O O O O O O O O O O O O O O O ",
"O O O O O O O O O O O O O O O O O O O O O 3 = = O O O O O O O O ",
"O O O O O O O O O O O O O s F = O O O O O I Y = O O O O O O O O ",
"O 3 3 F L O O O O O O O = *.$.O O O O O e ( P h = 3 3 O O O O O ",
"O = N =.#.O O O O O O O O p F O O O O O O O O O O = O O O O O O ",
"O = Q %.A O O O O O O O O O O O O = q O O O O O O O O O O O q O ",
"O O O O O O O O O q = 3 O O O O O q O O O O O O O O O O O O O O ",
"O O O O O O O O O O = O O O O O O O O O O O O O O O O O O O O O ",
"O O O O O O O O O O O = O O O O O O O O O O O O O O O O O O O O ",
"O O O O O O O O O O O x x 3 O O O O O O O O O O O O O O O q q O ",
"O O O O O q 3 O O O O Q x O O O O O O O O O O O O O O O O ' = O ",
"O O O O O O O O O O O O O O 3 O O O O 3 3 q O O O O O O O O O O ",
"O O = O O O O O O O O O O O = = O O O = o.M O O O O O O O O O O ",
"O 7 ) ^ O O O O O q a = = O O O O O O A C O O O O O O O O O O O ",
"O O O O O O O O O N ;.[ A O O O O q = O O O O O O O O O O O O O ",
"O O O O O O O O O O A p O O O O O O O O O O O O O O O O O O O O ",
"O = O O O O O O O O O O O O O O O O O O O O = = O O O O O O O O ",
"O 3 = O O O O O O q 3 O O O O O O O O O O O = O O O O O O O O O ",
"O O O O O O O O O e ' h = 3 q O O O O O O O O O O O O O O = O O ",
"O O O O O O R O O O O O = _ l O O = = = O O O O O O O O = F q O ",
"O q 3 O O p } O O O O 3 = U / O O s R E O O O O O O O q K O.Z O ",
"3 *.= s 3 O O O = 3 = O O h O O O z { = O O O O O O O = ..= = O ",
"O p x O.E O O O O k h O O O q 3 O O O O O O O O O O O O O O O O ",
"O O O O = O O O O O O O O O = O O O O O O O O O O O O O O O O O "
};
