/* XPM */
static char *wall[] = {
/* columns rows colors chars-per-pixel */
"32 32 124 2 ",
"   c None",
".  c #543A2B",
"X  c #593F2D",
"o  c #563F31",
"O  c #5A402E",
"+  c #574134",
"@  c #594236",
"#  c #5B4539",
"$  c #5C4A3E",
"%  c #604634",
"&  c #624836",
"*  c #624A3A",
"=  c #5D4C41",
"-  c #5E5346",
";  c #5F5449",
":  c #614F43",
">  c #635143",
",  c #685244",
"<  c #62564B",
"1  c #6A574A",
"2  c #63594E",
"3  c #6C5A4C",
"4  c #645D52",
"5  c #6F5D51",
"6  c #715F52",
"7  c #676056",
"8  c #6B6155",
"9  c #676258",
"0  c #6B655B",
"q  c #6F685E",
"w  c #716255",
"e  c #72695E",
"r  c #6E6961",
"t  c #726D64",
"y  c #777066",
"u  c #797267",
"i  c #767269",
"p  c #7B756B",
"a  c #7E796F",
"s  c #7F796F",
"d  c #7E786E",
"f  c #7D7A6F",
"g  c #7E7A6F",
"h  c #7F7A6F",
"j  c #7D786E",
"k  c #7C786D",
"l  c #7E7970",
"z  c #7F7970",
"x  c #7E7A70",
"c  c #7F7A70",
"v  c #7E7B70",
"b  c #7F7A71",
"n  c #7F7C72",
"m  c #80796F",
"M  c #817A70",
"N  c #807C72",
"B  c #827C72",
"V  c #857F72",
"C  c #858072",
"Z  c #858173",
"A  c #848277",
"S  c #858277",
"D  c #858377",
"F  c #878376",
"G  c #868477",
"H  c #878477",
"J  c #848378",
"K  c #858378",
"L  c #868378",
"P  c #868478",
"I  c #868578",
"U  c #878578",
"Y  c #868479",
"T  c #878579",
"R  c #86847A",
"E  c #87867C",
"W  c #888579",
"Q  c #888679",
"!  c #898679",
"~  c #888779",
"^  c #898779",
"/  c #8A8779",
"(  c #89867A",
")  c #89877A",
"_  c #89867B",
"`  c #8A877A",
"'  c #8A867B",
"]  c #88837C",
"[  c #88867C",
"{  c #89867C",
"}  c #8A887A",
"|  c #8B897B",
" . c #89887D",
".. c #8A887C",
"X. c #8A887D",
"o. c #8B887D",
"O. c #8A887E",
"+. c #8B897E",
"@. c #8C887D",
"#. c #8C887F",
"$. c #8C8A7F",
"%. c #8B8980",
"&. c #8C8880",
"*. c #8D8980",
"=. c #8D8A80",
"-. c #8D8B80",
";. c #8C8A81",
":. c #8E8B81",
">. c #8D8B82",
",. c #8E8C81",
"<. c #8E8C83",
"1. c #908D82",
"2. c #908D83",
"3. c #908E84",
"4. c #928F84",
"5. c #939087",
"6. c #939188",
"7. c #949188",
"8. c #949289",
"9. c #959289",
"0. c #97938A",
"q. c #98958C",
"w. c #99968D",
"e. c #9B978E",
/* pixels */
"                3 3 3 3 3 3 3 3 3 3 3 3 3 3 3 3                 ",
"              M <.<.>.E K K K K K K K K K K K T k               ",
"            m K D D D D D D D D D K T >.%.D D D D k             ",
"          3 [ D D D f t i i i i i k f k k x D D D [ 3           ",
"          3 [ D D N : @ % % * * & % % % % > n D D [ 3           ",
"          3 _ D D : 3 e i i i i i i t e e 1 : K D [ 1           ",
"          3  .G G % e i i i i i p u i i i u % T D  .3           ",
"          5  .G T % t i u i p p p p u u u i & G G @.5           ",
"          3  .T _ & k f p p p k k p p u i p & T T @.5           ",
"          6 @.T _ & f f f f f f f f k p p p & T T >.5           ",
"          6 >.T _ * x f f f f f f f f k p p *  .T <.6           ",
"          6 4._ _ , k f i 0 f f x x x x f i , >._ 1.6           ",
"          6 0.>._ G w 5 : > > > 8 8 8 8 5 w >.>._ 1.6           ",
"          6 0.>._ _ D V C C C V V C C C C @. ._ _ 1.6           ",
"          , >.4._ _ _ _ _ _ _ _ _ _ } } } } } _ 1.N X           ",
"          * p @.q.q.q.0.0.6.5.4.5.0.0.0.0.0.0.q.f 8 O           ",
"          * k ] t i t t q q r q t p k t q q q q k 0 .           ",
"          $ k q q t q q q q q q q q q q q q q q q i #           ",
"          = i q 0 q 0 9 9 9 9 9 8 8 9 9 9 0 t t q t =           ",
"          $ t 0 q 0 $ + $ $ $ $ $ $ $ $ $ = t t q t #           ",
"          # r 9 0 o = < 2 4 4 4 4 4 4 4 4 4 @ q 0 r @           ",
"          # r 9 0 . < 4 4 4 4 4 4 4 4 4 4 4 . 0 0 r @           ",
"          # r 9 9 . < 2 4 2 4 4 4 2 < < 4 4 . 0 9 q @           ",
"          @ q 9 9 . ; ; 2 2 2 < < < < < < < . 9 9 q @           ",
"          + 0 9 9 . ; ; < 2 2 2 < < < < < < . 9 9 0 @           ",
"          + 0 4 4 . - - < < 2 < < < < < ; ; . 9 4 0 @           ",
"          + 0 4 4 < $ - ; < < < < < < < ; = > 4 4 0 @           ",
"          o 0 4 4 9 2 . . . . . . . . . . > 4 4 4 9 +           ",
"          o q 0 9 4 9 0 0 0 q q q e e q 0 9 4 4 4 9 +           ",
"            < 0 0 4 4 4 4 4 4 4 4 9 0 9 4 4 4 4 4 <             ",
"              < 9 4 4 4 4 4 4 4 4 4 4 4 4 4 4 4 <               ",
"                . . . . . . . . . . . . . . . .                 "
};
