/* XPM */
static char *_4048b8526d940b7eb44dea87fb6d3afy6LAV8KAKJNGbTII[] = {
/* columns rows colors chars-per-pixel */
"16 16 32 1 ",
"  c #807D72",
". c #807E73",
"X c #817E73",
"o c #817E74",
"O c #827F75",
"+ c #838077",
"@ c #848176",
"# c #848077",
"$ c #848177",
"% c #858277",
"& c #848178",
"* c #858178",
"= c #858278",
"- c #868378",
"; c #868279",
": c #868379",
"> c #868479",
", c #878579",
"< c #87847A",
"1 c #87857A",
"2 c #87847B",
"3 c #888679",
"4 c #88857B",
"5 c #88867A",
"6 c #88867B",
"7 c #89877B",
"8 c #89867C",
"9 c #89867D",
"0 c #89887B",
"q c #8A887B",
"w c #8B887E",
"e c #918E84",
/* pixels */
"e5>005>>>>>>>55w",
">5>>>>>>>>>>>5>X",
"$>>>>>>>>>>>>5>X",
"->>>>>>>5>>>>5>X",
"-5>>>>>>>>>>>>>o",
"$>>>>>>>>>>>>>>X",
"$>>5>>>>>>>>>>>X",
"$>>5>>>>>>>>>>>X",
"$>>>>>>>>>>>>>>X",
"$>>>>>>>>>5>>>>X",
"$>>>>>>>>>>5>>>X",
"$>>>>>>>>>>>>>>o",
">>>>>>>>>>>>>>>o",
"55>>>>>>>>>5>>5X",
"5>5>>>>>>>>>>>5-",
"88--$$$+$-->--8+"
};
