/* XPM */
static char *wall[] = {
/* columns rows colors chars-per-pixel */
"32 32 86 1 ",
"  c #543B2B",
". c #593F2D",
"X c #563F32",
"o c #645C15",
"O c #68631D",
"+ c #72751B",
"@ c #78771F",
"# c #75781E",
"$ c #5A402E",
"% c #574134",
"& c #594236",
"* c #5B4539",
"= c #5C4A3E",
"- c #604634",
"; c #624836",
": c #624A3A",
"> c #6D6927",
", c #6D6829",
"< c #717420",
"1 c #767923",
"2 c #767936",
"3 c #777A3A",
"4 c #5D4C41",
"5 c #5E5346",
"6 c #5F5449",
"7 c #614F43",
"8 c #635143",
"9 c #685244",
"0 c #62564B",
"q c #6A574A",
"w c #63594E",
"e c #6C5A4D",
"r c #645D52",
"t c #6F5D51",
"y c #715F52",
"u c #777C45",
"i c #7B7E46",
"p c #7C7E4A",
"a c #6B6155",
"s c #676258",
"d c #6B655B",
"f c #6F685E",
"g c #716255",
"h c #72695E",
"j c #6E6961",
"k c #726D64",
"l c #777066",
"z c #767269",
"x c #7B756B",
"c c #7D796E",
"v c #7F7A70",
"b c #807F47",
"n c #80796F",
"m c #837D72",
"M c #7E8055",
"N c #8F8329",
"B c #9C8633",
"V c #9C8930",
"C c #86865E",
"Z c #88855E",
"A c #86876A",
"S c #8B8968",
"D c #8F8D6E",
"F c #928E6E",
"G c #858072",
"H c #858377",
"J c #868477",
"K c #858378",
"L c #878578",
"P c #87867C",
"I c #89867B",
"U c #88837C",
"Y c #88867C",
"T c #8A887A",
"R c #89887D",
"E c #8C887D",
"W c #928E71",
"Q c #8B8980",
"! c #8D8B82",
"~ c #8E8C83",
"^ c #908D82",
"/ c #928F84",
"( c #939087",
") c #939188",
"_ c #97938A",
"` c #98958C",
/* pixels */
"+++++++,eeeeeeeeeeeeeeee,+++++++",
"++++++Om~~!PKKKKKKKKKKKLxO++++++",
"+++++>nKHHHHHHHHHKL!QHHHHx>+++++",
"+++bbeYHHHckzzzzzxcxxvHHHYe+++++",
"+++22eYHHm7&--::;----8vHHYe+++++",
"+++++eIHH7ehzzzzzzkhhq7KHYe++i1+",
"+++++eRJJ-hzzzzzxlzzzl-LHRe++MC+",
"+++++tRJI-kzlzxxxxlllz;LJEt+++++",
"+++++eRLI;xxxxxxxxxlzx;ILEt+++++",
"+++++yELI;ccccccccxxxx;LL!t+++++",
"+++++y!LI:vcccccnncxxx:RL~y+++++",
"+##ipy/II9xczdccvvvvcz9!I^y+++++",
"++3WSy_!IJgt7888aaaatg!!I^y+++++",
"++MDiy_!IIHmGGGGmGGGGERII^y+++#+",
"+++++9!/IIIIIIIIIITTTTTI^m.+++++",
"+++++:xE```__)(((______`ca$+++++",
"+++++:cUkzkkffjfkxxkffffxd +++++",
"+++++=cffkfffffffffffffffz*++##+",
"+++++4zfdfdsssssaasssdkkfk4++V++",
"+++++=kddd=%=========4kkfk*+++++",
"+++++*jsdX40wrrrrrrrrr&fdj*+++++",
"+@BN+*jsd 0rrrrrrrrrrr ddj&+++++",
"+++++*jss 0wrwrrrw00rr dsf&+++++",
"+++++&fss 66www0000000 ssf&+++++",
"+++++%dss 660www000000 ssd&+++++",
"+#+++%drr 5500w0000066 srd&+++++",
"+++++%drr0=560000000648rrd&+++++",
"+++++Xdrrsw          8rrrs&++i#+",
"+##++Xfdsrsdddfffhhfdsrrrs%#iAu+",
"#F+1#O0ddrrrrrrrrsdsrrrrr0O+Z+++",
"+<2AM+o0srrrrrrrrrrrrrrr0o++++++",
"+++++++O                O+++++++"
};
